<?xml version="1.0" standalone="no"?>
<!DOCTYPE svg PUBLIC "-//W3C//DTD SVG 20010904//EN"
 "http://www.w3.org/TR/2001/REC-SVG-20010904/DTD/svg10.dtd">
<svg version="1.0" xmlns="http://www.w3.org/2000/svg"
 width="605.000000pt" height="151.000000pt" viewBox="0 0 605.000000 151.000000"
 preserveAspectRatio="xMidYMid meet">

<g transform="translate(0.000000,151.000000) scale(0.100000,-0.100000)"
fill="#000000" stroke="none">
<path d="M2049 1441 c-16 -13 -23 -29 -23 -54 0 -84 103 -113 150 -43 47 73
-58 153 -127 97z"/>
<path d="M3342 1453 c-7 -3 -19 -18 -27 -34 -27 -51 1 -103 63 -115 26 -5 36
-1 62 24 37 37 39 74 5 107 -23 24 -69 32 -103 18z"/>
<path d="M4463 1450 c-49 -20 -56 -78 -14 -121 35 -34 68 -37 105 -8 20 16 26
29 26 60 0 65 -51 96 -117 69z"/>
<path d="M271 1408 c-68 -26 -134 -91 -169 -166 -38 -81 -43 -203 -11 -287 30
-79 112 -162 187 -189 66 -23 199 -19 250 8 103 53 152 142 152 271 l0 75
-145 0 -145 0 0 -54 c0 -63 4 -66 96 -66 70 0 73 -3 47 -57 -31 -65 -128 -91
-208 -54 -82 37 -120 110 -113 221 6 118 73 190 178 190 58 0 107 -22 140 -63
l18 -21 52 24 c28 13 54 28 56 32 8 13 -32 71 -71 101 -19 15 -54 34 -76 42
-60 22 -173 18 -238 -7z"/>
<path d="M1763 1383 l-33 -4 0 -65 c0 -68 -2 -70 -58 -65 -22 2 -23 -1 -20
-51 l3 -53 35 0 35 0 5 -162 5 -163 32 -32 c27 -27 41 -32 91 -36 79 -6 93 4
98 61 l3 47 -39 0 c-29 0 -42 5 -50 20 -15 29 -9 265 8 266 6 1 27 2 46 3 33
1 34 3 38 46 l3 44 -52 7 -53 6 0 69 0 69 -32 -2 c-18 0 -48 -3 -65 -5z"/>
<path d="M911 1251 c-54 -14 -111 -62 -140 -116 -22 -43 -26 -63 -26 -136 0
-78 3 -90 30 -134 17 -27 50 -63 74 -80 37 -26 53 -30 119 -33 66 -3 84 0 121
20 24 13 55 38 68 55 l25 32 -42 21 -41 21 -54 -27 c-37 -18 -63 -24 -80 -20
-35 9 -83 56 -91 89 l-6 27 161 0 161 0 0 43 c0 55 -21 127 -50 167 -42 58
-147 91 -229 71z m123 -132 c45 -53 38 -59 -69 -59 -52 0 -95 2 -95 5 0 15 32
65 47 74 10 6 34 11 55 11 28 0 42 -7 62 -31z"/>
<path d="M1377 1249 c-130 -31 -172 -185 -69 -258 16 -11 57 -27 93 -36 83
-21 103 -36 95 -69 -12 -47 -100 -47 -156 0 l-30 26 -35 -22 c-42 -26 -44 -48
-7 -83 40 -39 93 -57 165 -57 88 0 144 29 176 93 51 102 -10 185 -158 216 -61
13 -81 25 -81 51 0 47 81 58 130 16 l30 -25 35 20 c41 24 43 36 14 73 -39 50
-125 73 -202 55z"/>
<path d="M2411 1251 c-59 -15 -113 -62 -146 -126 -63 -123 -28 -272 80 -340
36 -22 62 -30 111 -33 149 -10 250 77 262 225 12 158 -71 264 -218 277 -30 3
-70 1 -89 -3z m132 -129 c47 -42 63 -142 32 -202 -48 -93 -176 -75 -202 29
-21 79 12 166 72 192 27 12 74 3 98 -19z"/>
<path d="M3006 1250 c-16 -5 -42 -22 -59 -37 l-30 -28 5 26 c4 24 1 27 -31 33
-20 3 -48 6 -63 6 l-28 0 0 -247 0 -248 62 1 63 2 5 172 c5 166 6 173 29 191
36 29 94 25 120 -7 19 -25 21 -40 21 -190 l0 -164 66 0 65 0 -3 188 c-3 167
-5 191 -24 227 -12 22 -34 48 -51 57 -37 22 -108 30 -147 18z"/>
<path d="M3622 1234 c-78 -39 -113 -124 -78 -192 25 -49 52 -64 168 -97 69
-19 89 -44 58 -75 -27 -27 -75 -25 -129 5 -55 32 -61 31 -96 -5 -28 -29 -28
-30 -10 -50 40 -44 83 -62 163 -67 67 -4 83 -2 121 19 63 33 85 66 85 132 1
80 -34 113 -155 150 -92 27 -108 40 -90 74 21 40 87 36 136 -9 19 -17 23 -17
50 -3 56 28 59 37 29 73 -36 44 -70 59 -142 65 -51 4 -69 1 -110 -20z"/>
<path d="M4086 1245 c-144 -51 -146 -238 -2 -276 116 -31 141 -43 144 -71 6
-52 -83 -64 -147 -19 -38 27 -54 26 -88 -3 l-28 -24 21 -29 c73 -101 283 -97
351 6 56 84 9 182 -104 215 -119 35 -128 40 -128 66 0 17 9 29 27 38 33 16 67
8 99 -22 l24 -23 43 20 c23 12 42 26 42 33 0 17 -76 83 -102 88 -66 14 -116
14 -152 1z"/>
<path d="M4854 1241 c-23 -10 -45 -24 -48 -30 -12 -18 -23 -12 -22 12 1 20 -4
22 -56 25 l-57 2 -3 -137 c-2 -76 -1 -187 2 -248 l5 -110 58 -3 57 -4 0 170
c0 166 0 170 25 196 33 36 92 36 126 0 23 -25 24 -32 27 -189 l4 -162 55 -7
c31 -4 58 -5 60 -2 2 2 5 75 6 163 2 133 5 163 20 186 32 50 105 48 132 -3 11
-22 15 -65 15 -184 l0 -154 61 -4 c33 -1 63 -1 65 1 7 7 3 293 -5 349 -14 95
-70 147 -161 147 -50 0 -66 -5 -106 -33 l-46 -33 -28 26 c-26 25 -81 44 -125
45 -11 0 -39 -9 -61 -19z"/>
<path d="M5631 1248 c-73 -20 -133 -80 -159 -157 -18 -53 -15 -160 7 -206 73
-157 310 -183 410 -45 78 108 53 301 -47 372 -61 43 -141 57 -211 36z m129
-123 c19 -12 50 -87 50 -122 1 -138 -146 -197 -205 -83 -20 38 -19 123 1 165
26 55 99 74 154 40z"/>
<path d="M2044 1235 c-3 -6 -3 -116 -2 -244 l3 -234 60 0 60 0 3 242 c1 132
-1 241 -5 242 -63 5 -116 2 -119 -6z"/>
<path d="M3324 1241 c-5 -6 -5 -476 0 -482 2 -2 32 -2 65 -1 l61 4 0 242 0
242 -61 -1 c-33 0 -62 -2 -65 -4z"/>
<path d="M4444 1241 c-2 -2 -4 -111 -4 -242 l0 -237 61 -4 c33 -1 63 -1 65 1
2 2 4 111 4 242 l0 237 -61 4 c-33 1 -63 1 -65 -1z"/>
<path d="M1845 453 c-64 -17 -105 -81 -105 -162 0 -100 59 -165 151 -165 91 0
155 70 153 169 -1 60 -22 105 -65 136 -31 22 -96 33 -134 22z m104 -69 c37
-30 48 -80 32 -135 -29 -96 -153 -96 -182 1 -17 56 1 114 44 140 43 27 69 25
106 -6z"/>
<path d="M4461 443 c-117 -61 -115 -250 3 -304 52 -23 80 -23 133 0 48 22 65
57 38 78 -16 11 -20 10 -32 -6 -34 -49 -120 -42 -153 12 -64 105 49 241 134
162 26 -24 66 -29 73 -9 2 6 -12 25 -31 43 -44 42 -112 52 -165 24z"/>
<path d="M102 293 l3 -158 103 -3 102 -3 0 26 c0 25 -1 25 -75 25 l-75 0 0 45
0 45 65 0 c63 0 65 1 65 25 0 24 -2 25 -65 25 l-65 0 0 40 0 40 75 0 c73 0 75
1 75 25 l0 25 -105 0 -106 0 3 -157z"/>
<path d="M390 290 l0 -160 30 0 c26 0 30 4 29 23 -10 113 18 128 78 40 35 -51
44 -58 77 -61 l38 -3 -42 61 -42 62 31 26 c36 32 45 72 26 118 -19 45 -41 54
-139 54 l-86 0 0 -160z m163 92 c40 -35 -1 -85 -66 -80 -36 3 -41 6 -40 26 0
12 1 36 2 52 1 30 2 30 44 24 23 -4 50 -14 60 -22z"/>
<path d="M710 445 c0 -3 -1 -74 -1 -157 l0 -153 25 -3 c25 -3 26 -2 26 57 l0
61 38 0 c66 0 111 18 128 52 20 39 11 92 -21 124 -22 22 -33 24 -110 24 -47 0
-85 -2 -85 -5z m122 -46 c78 -21 55 -99 -29 -99 l-43 0 0 48 c0 67 5 70 72 51z"/>
<path d="M1140 290 l0 -160 73 0 c122 0 177 44 185 148 5 73 -15 124 -60 152
-26 16 -50 20 -115 20 l-83 0 0 -160z m175 83 c21 -21 25 -35 25 -80 0 -47 -4
-59 -29 -84 -24 -24 -38 -29 -75 -29 l-46 0 0 109 c0 96 2 110 18 113 37 7 83
-5 107 -29z"/>
<path d="M1477 293 l2 -158 26 -3 25 -3 0 160 0 161 -28 0 -27 0 2 -157z"/>
<path d="M2120 290 l0 -160 110 0 110 0 -2 25 c-2 24 -4 25 -80 25 l-78 0 0
135 0 135 -30 0 -30 0 0 -160z"/>
<path d="M2332 428 c3 -20 10 -23 51 -26 l47 -3 0 -135 0 -134 25 0 25 0 0
135 0 135 34 0 c47 0 66 9 66 31 0 18 -9 19 -126 19 -124 0 -125 0 -122 -22z"/>
<path d="M2640 290 l0 -160 25 0 c24 0 25 3 25 59 0 93 28 93 91 0 33 -50 44
-59 69 -59 17 0 30 2 30 5 0 3 -16 31 -36 62 l-36 56 30 23 c36 29 47 74 28
119 -20 46 -42 55 -140 55 l-86 0 0 -160z m129 110 c83 -24 57 -100 -34 -100
l-45 0 0 48 c0 67 9 72 79 52z"/>
<path d="M2960 290 l0 -161 108 3 c102 3 107 4 110 25 3 21 -1 22 -80 25 l-83
3 0 40 0 40 68 3 c63 3 67 4 67 27 0 23 -4 24 -67 27 -68 3 -68 3 -69 33 -2
49 1 51 81 47 l75 -4 0 26 0 26 -105 0 -105 0 0 -160z"/>
<path d="M3250 291 l0 -161 25 0 24 0 3 117 3 118 19 -40 c35 -76 54 -120 60
-141 4 -12 16 -24 27 -27 22 -6 20 -10 75 133 l29 75 3 -118 3 -118 25 3 25 3
2 158 2 158 -40 -3 -40 -3 -36 -95 c-20 -52 -40 -95 -44 -95 -4 0 -24 43 -44
95 l-36 95 -43 3 -42 3 0 -160z"/>
<path d="M3746 438 c-8 -24 -67 -193 -87 -246 -24 -66 -24 -62 6 -62 21 0 29
9 45 45 l19 45 54 0 c58 0 68 -7 84 -55 8 -24 16 -31 41 -33 l31 -3 -31 83
c-17 46 -43 117 -58 158 -27 73 -29 75 -64 78 -23 2 -38 -1 -40 -10z m69 -136
l13 -43 -44 2 c-27 2 -43 7 -41 13 2 6 12 36 22 66 20 60 20 60 50 -38z"/>
<path d="M3940 425 c0 -23 3 -25 49 -25 l49 0 -1 -132 -2 -133 28 -3 27 -3 0
135 0 135 48 3 c40 3 47 6 50 26 3 22 2 22 -122 22 l-126 0 0 -25z"/>
<path d="M4240 289 l0 -160 25 3 26 3 2 158 2 157 -27 0 -28 0 0 -161z"/>
<path d="M4799 423 c-6 -16 -21 -57 -34 -93 -12 -36 -32 -89 -44 -118 -27 -68
-27 -82 3 -82 18 0 27 9 41 45 l17 46 61 -3 60 -3 15 -43 c12 -37 17 -42 44
-42 35 0 37 -12 -35 183 l-50 137 -34 0 c-27 0 -36 -5 -44 -27z m77 -128 l6
-35 -41 0 c-22 0 -41 1 -41 3 0 3 15 51 37 117 5 18 29 -33 39 -85z"/>
</g>
</svg>
